<svg width="24" height="24" viewBox="0 0 24 24" fill="none" xmlns="http://www.w3.org/2000/svg">
<path d="M12.0534 1.56C6.17339 1.56 1.38672 5.74666 1.38672 10.8933C1.38672 16.04 6.17339 20.2267 12.0534 20.2267C13.1625 20.2286 14.2664 20.076 15.3334 19.7733L19.0201 22.12C19.1686 22.2152 19.3489 22.2477 19.5214 22.2102C19.6938 22.1727 19.8444 22.0683 19.9401 21.92C20.0094 21.8127 20.0464 21.6877 20.0467 21.56V17.0733C20.8809 16.2731 21.5465 15.3141 22.0045 14.2528C22.4625 13.1914 22.7035 12.0492 22.7134 10.8933C22.7201 5.74666 17.9334 1.56 12.0534 1.56ZM18.9134 16.3C18.8464 16.3622 18.7928 16.4374 18.7561 16.5212C18.7194 16.6049 18.7003 16.6953 18.7001 16.7867V20.3467L15.7801 18.4867C15.6986 18.4352 15.607 18.402 15.5114 18.3893C15.4159 18.3766 15.3188 18.3848 15.2267 18.4133C14.1992 18.7325 13.1293 18.8943 12.0534 18.8933C6.90672 18.8933 2.72005 15.3067 2.72005 10.8933C2.72005 6.48 6.90672 2.89333 12.0534 2.89333C17.2001 2.89333 21.3867 6.48 21.3867 10.8933C21.3707 11.9166 21.1426 12.9254 20.7169 13.856C20.2912 14.7866 19.6771 15.6188 18.9134 16.3Z" fill="#00FFF5"/>
<path d="M20.7334 10.5466L20.6667 10.4466L19.0001 8.95997C18.7855 8.76471 18.5339 8.61453 18.2602 8.51833C17.9865 8.42214 17.6963 8.38189 17.4067 8.39997L13.8201 8.62664L11.4267 6.62664C11.3296 6.54501 11.2069 6.50017 11.0801 6.49997H9.04006C8.94649 6.49892 8.85436 6.52313 8.7734 6.57007C8.69244 6.617 8.62565 6.68491 8.58006 6.76664C8.53249 6.84624 8.50737 6.93724 8.50737 7.02997C8.50737 7.1227 8.53249 7.2137 8.58006 7.29331L9.48673 8.91997L6.34673 9.11331L7.22006 10.1266L17.4801 9.45997C17.628 9.4505 17.7762 9.47102 17.916 9.52028C18.0558 9.56954 18.1841 9.64653 18.2934 9.74664L19.8667 11.1666C19.8718 11.1818 19.8718 11.1982 19.8667 11.2133C19.8667 11.2533 19.8067 11.2466 19.8001 11.2533H14.5467L14.3134 11.5L10.8534 15.1866H9.76006L11.5801 11.2533H5.6934L4.7534 9.43997L4.34006 8.66664C4.26181 8.57032 4.15242 8.50431 4.03073 8.47998C3.90904 8.45564 3.78268 8.4745 3.6734 8.53331C3.549 8.60339 3.45741 8.71988 3.41868 8.85731C3.37995 8.99474 3.39723 9.14191 3.46673 9.26664L4.80006 11.8933C4.86867 12.0247 4.97216 12.1347 5.09918 12.2111C5.2262 12.2876 5.37182 12.3275 5.52006 12.3266H9.90006L8.60673 15.1133C8.55033 15.2367 8.52624 15.3724 8.53674 15.5077C8.54723 15.643 8.59197 15.7734 8.66673 15.8866C8.73878 15.9987 8.83725 16.0914 8.95349 16.1565C9.06974 16.2216 9.2002 16.2571 9.3334 16.26H10.9534C11.064 16.2607 11.1736 16.2379 11.2747 16.1931C11.3759 16.1483 11.4663 16.0824 11.5401 16L14.9934 12.3266H19.7667C19.9758 12.3323 20.1822 12.2783 20.3617 12.1708C20.5412 12.0634 20.6863 11.907 20.7801 11.72C20.8774 11.5379 20.9244 11.3332 20.9162 11.127C20.908 10.9207 20.8449 10.7204 20.7334 10.5466ZM9.94673 7.53997H10.8867L12.2801 8.71997L10.6667 8.81997L9.94673 7.53997Z" fill="#00FFF5"/>
</svg>
