<svg width="24" height="24" viewBox="0 0 24 24" fill="none" xmlns="http://www.w3.org/2000/svg">
<path fill-rule="evenodd" clip-rule="evenodd" d="M12 22C6.477 22 2 17.523 2 12C2 6.477 6.477 2 12 2C17.523 2 22 6.477 22 12C22 17.523 17.523 22 12 22ZM12 20C14.1217 20 16.1566 19.1571 17.6569 17.6569C19.1571 16.1566 20 14.1217 20 12C20 9.87827 19.1571 7.84344 17.6569 6.34315C16.1566 4.84285 14.1217 4 12 4C9.87827 4 7.84344 4.84285 6.34315 6.34315C4.84285 7.84344 4 9.87827 4 12C4 14.1217 4.84285 16.1566 6.34315 17.6569C7.84344 19.1571 9.87827 20 12 20ZM16 17H14.661C14.661 17 14.244 14.333 12 14.333C9.756 14.333 9.333 17 9.333 17H8C8 15.9391 8.42143 14.9217 9.17157 14.1716C9.92172 13.4214 10.9391 13 12 13C13.0609 13 14.0783 13.4214 14.8284 14.1716C15.5786 14.9217 16 15.9391 16 17ZM10.506 8.99C10.7286 9.22871 10.8673 9.53352 10.901 9.8582C10.9348 10.1829 10.8616 10.5097 10.6928 10.789C10.5239 11.0684 10.2686 11.285 9.96543 11.4061C9.6623 11.5272 9.32794 11.5461 9.0131 11.4599C8.69826 11.3737 8.42012 11.1872 8.22089 10.9287C8.02165 10.6701 7.9122 10.3536 7.90913 10.0272C7.90607 9.70078 8.00956 9.38229 8.2039 9.12003C8.39825 8.85777 8.67283 8.66606 8.986 8.574L7.33 7.97C7.20535 7.92465 7.10382 7.83164 7.04774 7.71142C6.99167 7.59121 6.98565 7.45365 7.031 7.329C7.07635 7.20435 7.16936 7.10282 7.28958 7.04674C7.40979 6.99067 7.54735 6.98465 7.672 7.03L10.492 8.056C10.5871 8.09062 10.6695 8.15331 10.7283 8.23577C10.787 8.31824 10.8194 8.4166 10.821 8.51784C10.8226 8.61907 10.7935 8.71842 10.7374 8.80273C10.6813 8.88704 10.601 8.95234 10.507 8.99H10.506ZM13.403 8.99C13.3086 8.95265 13.2279 8.88741 13.1715 8.80298C13.1152 8.71855 13.0859 8.61895 13.0877 8.51746C13.0894 8.41598 13.1221 8.31743 13.1813 8.23498C13.2405 8.15253 13.3234 8.09009 13.419 8.056L16.239 7.03C16.3007 7.00754 16.3663 6.99746 16.4319 7.00034C16.4975 7.00321 16.5619 7.01898 16.6214 7.04674C16.6809 7.07451 16.7344 7.11373 16.7788 7.16216C16.8232 7.21058 16.8575 7.26728 16.88 7.329C16.9025 7.39072 16.9125 7.45626 16.9097 7.52188C16.9068 7.58749 16.891 7.6519 16.8633 7.71142C16.8355 7.77095 16.7963 7.82442 16.7478 7.86878C16.6994 7.91315 16.6427 7.94754 16.581 7.97L14.922 8.573C15.2353 8.66474 15.5101 8.85619 15.7047 9.11829C15.8994 9.38038 16.0032 9.69882 16.0004 10.0253C15.9976 10.3517 15.8884 10.6683 15.6894 10.9271C15.4904 11.1858 15.2123 11.3726 14.8975 11.459C14.5827 11.5455 14.2483 11.5268 13.9451 11.4059C13.6418 11.2851 13.3863 11.0686 13.2172 10.7893C13.0482 10.51 12.9749 10.1832 13.0084 9.8585C13.0419 9.53377 13.1805 9.22884 13.403 8.99Z" fill="#B0B0B0"/>
</svg>
