<svg width="24" height="24" viewBox="0 0 24 24" fill="none" xmlns="http://www.w3.org/2000/svg">
<path d="M7.31519 3.6001C6.63546 3.6006 5.97604 3.83192 5.44496 4.25618C4.91388 4.68043 4.54262 5.27246 4.39199 5.9353L2.48279 14.3353C2.38301 14.7744 2.38335 15.2303 2.48377 15.6692C2.58419 16.1081 2.78213 16.5188 3.0629 16.8708C3.34367 17.2228 3.70008 17.5071 4.10569 17.7026C4.51131 17.8981 4.95572 17.9998 5.40599 18.0001H18.594C19.0444 17.9999 19.4889 17.8984 19.8947 17.703C20.3004 17.5076 20.657 17.2233 20.9379 16.8713C21.2188 16.5193 21.4169 16.1085 21.5173 15.6695C21.6178 15.2305 21.6182 14.7745 21.5184 14.3353L19.6104 5.9353C19.4596 5.27166 19.0876 4.67902 18.5555 4.25468C18.0235 3.83034 17.3629 3.59951 16.6824 3.6001H7.31519ZM5.56079 6.2017C5.65109 5.80383 5.87388 5.44844 6.19264 5.19378C6.51139 4.93913 6.9072 4.80032 7.31519 4.8001H16.6836C17.0918 4.80004 17.4879 4.93873 17.8069 5.19341C18.1259 5.44809 18.3488 5.80363 18.4392 6.2017L20.3484 14.6017C20.4082 14.8652 20.4079 15.1389 20.3475 15.4023C20.2871 15.6657 20.1682 15.9122 19.9996 16.1233C19.8309 16.3345 19.6169 16.505 19.3734 16.6222C19.1298 16.7393 18.863 16.8001 18.5928 16.8001H5.40599C5.13584 16.8 4.86919 16.739 4.6258 16.6218C4.38242 16.5045 4.16854 16.334 4.00004 16.1229C3.83153 15.9117 3.71271 15.6653 3.65239 15.402C3.59207 15.1387 3.5918 14.8651 3.65159 14.6017L5.56079 6.2017ZM6.59999 19.2001C6.44086 19.2001 6.28825 19.2633 6.17573 19.3758C6.0632 19.4884 5.99999 19.641 5.99999 19.8001C5.99999 19.9592 6.0632 20.1118 6.17573 20.2244C6.28825 20.3369 6.44086 20.4001 6.59999 20.4001H17.4C17.5591 20.4001 17.7117 20.3369 17.8243 20.2244C17.9368 20.1118 18 19.9592 18 19.8001C18 19.641 17.9368 19.4884 17.8243 19.3758C17.7117 19.2633 17.5591 19.2001 17.4 19.2001H6.59999Z" fill="#B0B0B0"/>
</svg>
