<svg width="24" height="24" viewBox="0 0 24 24" fill="none" xmlns="http://www.w3.org/2000/svg">
<path d="M7.31519 3.59998C6.63546 3.60048 5.97604 3.8318 5.44496 4.25606C4.91388 4.68031 4.54262 5.27234 4.39199 5.93518L2.48279 14.3352C2.38301 14.7742 2.38335 15.2301 2.48377 15.6691C2.58419 16.108 2.78213 16.5187 3.0629 16.8707C3.34367 17.2227 3.70008 17.507 4.10569 17.7025C4.51131 17.898 4.95572 17.9996 5.40599 18H18.594C19.0444 17.9998 19.4889 17.8983 19.8947 17.7029C20.3004 17.5074 20.657 17.2232 20.9379 16.8712C21.2188 16.5191 21.4169 16.1084 21.5173 15.6694C21.6178 15.2304 21.6182 14.7743 21.5184 14.3352L19.6104 5.93518C19.4596 5.27154 19.0876 4.6789 18.5555 4.25456C18.0235 3.83022 17.3629 3.59939 16.6824 3.59998H7.31519ZM5.56079 6.20158C5.65109 5.80371 5.87388 5.44832 6.19264 5.19366C6.51139 4.93901 6.9072 4.80019 7.31519 4.79998H16.6836C17.0918 4.79992 17.4879 4.93861 17.8069 5.19329C18.1259 5.44797 18.3488 5.80351 18.4392 6.20158L20.3484 14.6016C20.4082 14.8651 20.4079 15.1388 20.3475 15.4022C20.2871 15.6656 20.1682 15.912 19.9996 16.1232C19.8309 16.3344 19.6169 16.5049 19.3734 16.622C19.1298 16.7392 18.863 16.8 18.5928 16.8H5.40599C5.13584 16.7998 4.86919 16.7389 4.6258 16.6216C4.38242 16.5044 4.16854 16.3339 4.00004 16.1227C3.83153 15.9116 3.71271 15.6652 3.65239 15.4019C3.59207 15.1386 3.5918 14.865 3.65159 14.6016L5.56079 6.20158ZM6.59999 19.2C6.44086 19.2 6.28825 19.2632 6.17573 19.3757C6.0632 19.4882 5.99999 19.6408 5.99999 19.8C5.99999 19.9591 6.0632 20.1117 6.17573 20.2242C6.28825 20.3368 6.44086 20.4 6.59999 20.4H17.4C17.5591 20.4 17.7117 20.3368 17.8243 20.2242C17.9368 20.1117 18 19.9591 18 19.8C18 19.6408 17.9368 19.4882 17.8243 19.3757C17.7117 19.2632 17.5591 19.2 17.4 19.2H6.59999Z" fill="#00FFF5"/>
</svg>
