<svg width="14" height="14" viewBox="0 0 14 14" fill="none" xmlns="http://www.w3.org/2000/svg">
<g clip-path="url(#clip0_2002_823)">
<path d="M8.75008 12.8333L3.50008 12.8333C2.85841 12.8333 2.33341 12.3083 2.33341 11.6666L2.33341 2.33331C2.33342 1.69164 2.85842 1.16664 3.50008 1.16664L8.75008 1.16664C9.39175 1.16665 9.91675 1.69165 9.91675 2.33331L9.91675 3.49998L8.75008 3.49998L8.75008 2.33331L3.50008 2.33331L3.50008 11.6666L8.75008 11.6666L8.75008 10.5L9.91675 10.5L9.91675 11.6666C9.91675 12.3083 9.39175 12.8333 8.75008 12.8333Z" fill="#FFE605"/>
<path d="M8.11417 4.90585L7.29167 4.08335L4.375 7.00002L7.29167 9.91669L8.11417 9.09419L6.60917 7.58335L12.25 7.58335L12.25 6.41669L6.60917 6.41669L8.11417 4.90585Z" fill="#FFE605"/>
</g>
<defs>
<clipPath id="clip0_2002_823">
<rect width="14" height="14" fill="white"/>
</clipPath>
</defs>
</svg>
