<svg width="24" height="24" viewBox="0 0 24 24" fill="none" xmlns="http://www.w3.org/2000/svg">
<path d="M21 21V5H3V13H1V3H23V21H21ZM9 14C7.9 14 6.95833 13.6083 6.175 12.825C5.39167 12.0417 5 11.1 5 10C5 8.9 5.39167 7.95833 6.175 7.175C6.95833 6.39167 7.9 6 9 6C10.1 6 11.0417 6.39167 11.825 7.175C12.6083 7.95833 13 8.9 13 10C13 11.1 12.6083 12.0417 11.825 12.825C11.0417 13.6083 10.1 14 9 14ZM9 12C9.55 12 10.021 11.804 10.413 11.412C10.8043 11.0207 11 10.55 11 10C11 9.45 10.8043 8.979 10.413 8.587C10.021 8.19567 9.55 8 9 8C8.45 8 7.97933 8.19567 7.588 8.587C7.196 8.979 7 9.45 7 10C7 10.55 7.196 11.0207 7.588 11.412C7.97933 11.804 8.45 12 9 12ZM1 22V19.2C1 18.6333 1.146 18.1127 1.438 17.638C1.72933 17.1627 2.11667 16.8 2.6 16.55C3.63333 16.0333 4.68333 15.6457 5.75 15.387C6.81667 15.129 7.9 15 9 15C10.1 15 11.1833 15.129 12.25 15.387C13.3167 15.6457 14.3667 16.0333 15.4 16.55C15.8833 16.8 16.2707 17.1627 16.562 17.638C16.854 18.1127 17 18.6333 17 19.2V22H1ZM3 20H15V19.2C15 19.0167 14.9543 18.85 14.863 18.7C14.771 18.55 14.65 18.4333 14.5 18.35C13.6 17.9 12.6917 17.5623 11.775 17.337C10.8583 17.1123 9.93333 17 9 17C8.06667 17 7.14167 17.1123 6.225 17.337C5.30833 17.5623 4.4 17.9 3.5 18.35C3.35 18.4333 3.22933 18.55 3.138 18.7C3.046 18.85 3 19.0167 3 19.2V20Z" fill="#B0B0B0"/>
</svg>
