<svg width="24" height="24" viewBox="0 0 24 24" fill="none" xmlns="http://www.w3.org/2000/svg">
<path d="M3.60071 19C3.32834 19 3.10019 18.904 2.91626 18.712C2.73169 18.5207 2.6394 18.2833 2.6394 18V13C2.6394 12.55 2.72752 12.1417 2.90376 11.775C3.08 11.4083 3.31232 11.0833 3.60071 10.8V8C3.60071 7.16667 3.88109 6.45833 4.44185 5.875C5.00261 5.29167 5.68353 5 6.48462 5H10.3298C10.6983 5 11.0428 5.071 11.3632 5.213C11.6837 5.35433 11.9801 5.55 12.2524 5.8C12.5248 5.55 12.8212 5.35433 13.1416 5.213C13.4621 5.071 13.8065 5 14.175 5H18.0203C18.8213 5 19.5023 5.29167 20.063 5.875C20.6238 6.45833 20.9042 7.16667 20.9042 8V10.8C21.1926 11.0833 21.4249 11.4083 21.6011 11.775C21.7774 12.1417 21.8655 12.55 21.8655 13V18C21.8655 18.2833 21.7732 18.5207 21.5886 18.712C21.4047 18.904 21.1765 19 20.9042 19C20.6318 19 20.4037 18.904 20.2197 18.712C20.0352 18.5207 19.9429 18.2833 19.9429 18V17H4.56201V18C4.56201 18.2833 4.47005 18.5207 4.28612 18.712C4.10155 18.904 3.87308 19 3.60071 19ZM13.2137 10H18.9816V8C18.9816 7.71667 18.8893 7.479 18.7047 7.287C18.5208 7.09567 18.2926 7 18.0203 7H14.175C13.9027 7 13.6745 7.09567 13.4906 7.287C13.306 7.479 13.2137 7.71667 13.2137 8V10ZM5.52331 10H11.2911V8C11.2911 7.71667 11.1992 7.479 11.0152 7.287C10.8307 7.09567 10.6022 7 10.3298 7H6.48462C6.21225 7 5.98378 7.09567 5.79921 7.287C5.61528 7.479 5.52331 7.71667 5.52331 8V10ZM4.56201 15H19.9429V13C19.9429 12.7167 19.8506 12.479 19.666 12.287C19.4821 12.0957 19.2539 12 18.9816 12H5.52331C5.25095 12 5.02248 12.0957 4.83791 12.287C4.65398 12.479 4.56201 12.7167 4.56201 13V15Z" fill="#B0B0B0"/>
</svg>
