<svg width="24" height="24" viewBox="0 0 24 24" fill="none" xmlns="http://www.w3.org/2000/svg">
<g clip-path="url(#clip0_2013_149)">
<path d="M15 11C14.45 11 13.979 10.804 13.587 10.412C13.195 10.02 12.9993 9.54934 13 9V5C13 4.45 13.196 3.979 13.588 3.587C13.98 3.195 14.4507 2.99934 15 3H19C19.55 3 20.021 3.196 20.413 3.588C20.805 3.98 21.0007 4.45067 21 5V9C21 9.55 20.804 10.021 20.412 10.413C20.02 10.805 19.5493 11.0007 19 11H15ZM11 9C11 9.55 10.804 10.021 10.412 10.413C10.02 10.805 9.54934 11.0007 9 11H5C4.45 11 3.979 10.804 3.587 10.412C3.195 10.02 2.99934 9.54934 3 9V5C3 4.45 3.196 3.979 3.588 3.587C3.98 3.195 4.45067 2.99934 5 3H9C9.55 3 10.021 3.196 10.413 3.588C10.805 3.98 11.0007 4.45067 11 5V9ZM13 15C13 14.45 13.196 13.979 13.588 13.587C13.98 13.195 14.4507 12.9993 15 13H19C19.55 13 20.021 13.196 20.413 13.588C20.805 13.98 21.0007 14.4507 21 15V19C21 19.55 20.804 20.021 20.412 20.413C20.02 20.805 19.5493 21.0007 19 21H15C14.45 21 13.979 20.804 13.587 20.412C13.195 20.02 12.9993 19.5493 13 19V15ZM9 13C9.55 13 10.021 13.196 10.413 13.588C10.805 13.98 11.0007 14.4507 11 15V19C11 19.55 10.804 20.021 10.412 20.413C10.02 20.805 9.54934 21.0007 9 21H5C4.45 21 3.979 20.804 3.587 20.412C3.195 20.02 2.99934 19.5493 3 19V15C3 14.45 3.196 13.979 3.588 13.587C3.98 13.195 4.45067 12.9993 5 13H9Z" fill="#B0B0B0"/>
</g>
<defs>
<clipPath id="clip0_2013_149">
<rect width="24" height="24" fill="white"/>
</clipPath>
</defs>
</svg>
