<svg width="28" height="28" viewBox="0 0 28 28" fill="none" xmlns="http://www.w3.org/2000/svg">
<path d="M24.7735 6.16881L14.2735 2.66881C14.0954 2.61398 13.9048 2.61398 13.7266 2.66881L3.23758 6.16881H3.21571L3.10633 6.22349H3.0954L2.98602 6.28912C2.98602 6.30006 2.97508 6.30006 2.96415 6.31099L2.87665 6.38756L2.80008 6.47506C2.80008 6.48599 2.78915 6.48599 2.78915 6.49693L2.72352 6.59537C2.72352 6.60631 2.72352 6.60631 2.71258 6.61724L2.66883 6.71568L2.63602 6.83599V6.86881C2.62523 6.91167 2.62154 6.956 2.62508 7.00006V15.7501C2.62508 15.9821 2.71727 16.2047 2.88137 16.3688C3.04546 16.5329 3.26802 16.6251 3.50008 16.6251C3.73215 16.6251 3.95471 16.5329 4.1188 16.3688C4.2829 16.2047 4.37508 15.9821 4.37508 15.7501V8.21412L8.05008 9.43912C7.35967 10.5442 6.99567 11.822 7.00008 13.1251C7.00049 14.3101 7.30176 15.4757 7.87566 16.5126C8.44956 17.5494 9.27731 18.4236 10.2813 19.0532C8.1949 19.8425 6.41368 21.2751 5.1954 23.1438C5.07122 23.3402 5.02915 23.5775 5.07825 23.8045C5.12735 24.0316 5.26369 24.2303 5.4579 24.3579C5.5532 24.421 5.66009 24.4646 5.77237 24.4862C5.88465 24.5077 6.00009 24.5067 6.11199 24.4833C6.2239 24.4599 6.33005 24.4146 6.42429 24.3498C6.51854 24.2851 6.599 24.2023 6.66102 24.1063C7.45522 22.883 8.54264 21.8775 9.82438 21.1815C11.1061 20.4854 12.5415 20.1208 14.0001 20.1208C15.4586 20.1208 16.894 20.4854 18.1758 21.1815C19.4575 21.8775 20.5449 22.883 21.3391 24.1063C21.419 24.2276 21.5278 24.3271 21.6558 24.3958C21.7837 24.4646 21.9267 24.5004 22.072 24.5001C22.2396 24.5018 22.4037 24.4522 22.5423 24.3579C22.7365 24.2303 22.8728 24.0316 22.9219 23.8045C22.971 23.5775 22.9289 23.3402 22.8048 23.1438C21.5865 21.2751 19.8053 19.8425 17.7188 19.0532C18.7229 18.4236 19.5506 17.5494 20.1245 16.5126C20.6984 15.4757 20.9997 14.3101 21.0001 13.1251C21.0045 11.822 20.6405 10.5442 19.9501 9.43912L24.7735 7.83131C24.9486 7.77377 25.101 7.66243 25.2091 7.51316C25.3171 7.3639 25.3753 7.18433 25.3753 7.00006C25.3753 6.81578 25.3171 6.63621 25.2091 6.48695C25.101 6.33768 24.9486 6.22635 24.7735 6.16881ZM19.2501 13.1251C19.2501 14.5174 18.697 15.8528 17.7124 16.8374C16.7278 17.8219 15.3925 18.3751 14.0001 18.3751C12.6077 18.3751 11.2723 17.8219 10.2878 16.8374C9.30321 15.8528 8.75008 14.5174 8.75008 13.1251C8.75219 12.0048 9.1082 10.9138 9.76727 10.0079L13.7266 11.3313C13.9043 11.3897 14.0959 11.3897 14.2735 11.3313L18.2329 10.0079C18.892 10.9138 19.248 12.0048 19.2501 13.1251ZM18.2329 8.17037H18.222L14.0001 9.58131L9.77821 8.17037H9.76727L6.26727 7.00006L14.0001 4.41881L21.7329 7.00006L18.2329 8.17037Z" fill="#00FFF5"/>
</svg>
