<svg width="62" height="62" viewBox="0 0 62 62" fill="none" xmlns="http://www.w3.org/2000/svg">
<circle cx="31" cy="31" r="31" fill="#2F2F2F"/>
<path d="M39.3333 25.9998C39.3333 23.6982 38.4 21.6148 36.8933 20.1082C35.385 18.5998 33.3017 17.6665 31 17.6665C28.6983 17.6665 26.615 18.5998 25.1067 20.1082C23.6 21.6148 22.6667 23.6982 22.6667 25.9998C22.6667 28.3015 23.6 30.3848 25.1067 31.8915C26.615 33.3998 28.6983 34.3332 31 34.3332C33.3017 34.3332 35.385 33.3998 36.8933 31.8915C37.6681 31.1186 38.2825 30.2002 38.7012 29.1891C39.12 28.1781 39.3348 27.0942 39.3333 25.9998ZM21 42.6665C21 44.3332 24.75 45.9998 31 45.9998C36.8633 45.9998 41 44.3332 41 42.6665C41 39.3332 37.0767 35.9998 31 35.9998C24.75 35.9998 21 39.3332 21 42.6665Z" fill="#00FFF5"/>
</svg>
