<svg width="24" height="24" viewBox="0 0 24 24" fill="none" xmlns="http://www.w3.org/2000/svg">
<path d="M3.62915 19V5.70002C3.62909 5.49474 3.68976 5.29442 3.80292 5.12625C3.91608 4.95809 4.07626 4.83022 4.26169 4.76002L13.5585 1.24402C13.6311 1.21652 13.709 1.20765 13.7856 1.21815C13.8622 1.22865 13.9353 1.25822 13.9986 1.30434C14.0619 1.35046 14.1136 1.41178 14.1492 1.4831C14.1849 1.55441 14.2035 1.63363 14.2035 1.71402V6.66702L20.2751 8.77202C20.4666 8.83837 20.6331 8.96573 20.7512 9.13607C20.8692 9.3064 20.9327 9.51105 20.9326 9.72102V19H22.8552V21H1.70654V19H3.62915ZM5.55176 19H12.2809V3.85502L5.55176 6.40102V19ZM19.01 19V10.442L14.2035 8.77502V19H19.01Z" fill="#B0B0B0"/>
</svg>
