<svg width="40" height="40" viewBox="0 0 40 40" fill="none" xmlns="http://www.w3.org/2000/svg">
<path d="M28.3333 15.0001C28.3333 12.6984 27.4 10.6151 25.8933 9.10842C24.385 7.60008 22.3017 6.66675 20 6.66675C17.6983 6.66675 15.615 7.60008 14.1067 9.10842C12.6 10.6151 11.6667 12.6984 11.6667 15.0001C11.6667 17.3017 12.6 19.3851 14.1067 20.8917C15.615 22.4001 17.6983 23.3334 20 23.3334C22.3017 23.3334 24.385 22.4001 25.8933 20.8917C26.6681 20.1188 27.2825 19.2005 27.7012 18.1894C28.12 17.1783 28.3348 16.0944 28.3333 15.0001ZM10 31.6667C10 33.3334 13.75 35.0001 20 35.0001C25.8633 35.0001 30 33.3334 30 31.6667C30 28.3334 26.0767 25.0001 20 25.0001C13.75 25.0001 10 28.3334 10 31.6667Z" fill="#00FFF5"/>
</svg>
