<svg width="24" height="24" viewBox="0 0 24 24" fill="none" xmlns="http://www.w3.org/2000/svg">
<path d="M10 2C9.4 2 9 2.4 9 3V21C9 21.6 9.4 22 10 22C10.6 22 11 21.6 11 21V3C11 2.4 10.6 2 10 2ZM5 12C4.4 12 4 12.4 4 13V21C4 21.6 4.4 22 5 22C5.6 22 6 21.6 6 21V13C6 12.4 5.6 12 5 12ZM15 8C14.4 8 14 8.4 14 9V21C14 21.6 14.4 22 15 22C15.6 22 16 21.6 16 21V9C16 8.4 15.6 8 15 8ZM20 16C19.4 16 19 16.4 19 17V21C19 21.6 19.4 22 20 22C20.6 22 21 21.6 21 21V17C21 16.4 20.6 16 20 16Z" fill="#00FFF5"/>
</svg>
