<svg width="16" height="17" viewBox="0 0 16 17" fill="none" xmlns="http://www.w3.org/2000/svg">
<path d="M9.77778 0.0869141V1.87742H12.9689L4.23111 10.6778L5.48444 11.9401L14.2222 3.13973V6.3537H16V0.0869141M14.2222 14.411H1.77778V1.87742H8V0.0869141H1.77778C1.30628 0.0869141 0.854097 0.275557 0.520699 0.611342C0.187301 0.947128 0 1.40255 0 1.87742V14.411C0 14.8859 0.187301 15.3413 0.520699 15.6771C0.854097 16.0129 1.30628 16.2015 1.77778 16.2015H14.2222C14.6937 16.2015 15.1459 16.0129 15.4793 15.6771C15.8127 15.3413 16 14.8859 16 14.411V8.14421H14.2222V14.411Z" fill="white"/>
</svg>
